<?xml version="1.0" standalone="no"?>
<!DOCTYPE svg PUBLIC "-//W3C//DTD SVG 20010904//EN"
 "http://www.w3.org/TR/2001/REC-SVG-20010904/DTD/svg10.dtd">
<svg version="1.0" xmlns="http://www.w3.org/2000/svg"
 width="282.000000pt" height="278.000000pt" viewBox="0 0 282.000000 278.000000"
 preserveAspectRatio="xMidYMid meet">

<g transform="translate(0.000000,278.000000) scale(0.100000,-0.100000)"
fill="#000000" stroke="none">
<path d="M1130 2769 c-30 -5 -80 -18 -110 -28 -30 -10 -75 -24 -100 -32 -72
-21 -239 -105 -312 -156 -107 -76 -235 -190 -277 -246 -21 -29 -45 -58 -54
-65 -8 -7 -34 -45 -58 -85 -23 -40 -52 -88 -64 -107 -45 -71 -68 -127 -108
-255 l-41 -130 -4 -217 c-3 -183 -1 -218 10 -218 19 0 96 51 128 85 14 15 36
36 49 48 13 12 33 31 45 42 11 11 39 33 61 48 22 15 51 36 65 47 l25 20 58
-19 c32 -11 71 -29 86 -41 16 -11 34 -20 40 -20 6 0 52 -40 101 -89 l90 -89
-35 -59 c-43 -71 -145 -269 -145 -282 0 -5 12 -16 28 -23 15 -8 38 -21 52 -29
14 -8 27 -15 28 -16 2 -1 -6 -23 -17 -48 -12 -26 -21 -56 -21 -66 0 -10 -5
-21 -10 -24 -16 -10 -12 -22 9 -28 11 -2 27 -19 36 -36 19 -37 42 -197 51
-358 6 -102 5 -113 -10 -113 -13 0 -15 -4 -7 -19 12 -21 192 -101 301 -132 67
-19 106 -22 354 -26 203 -4 290 -2 320 7 23 7 52 16 66 20 14 4 59 18 100 30
315 92 648 381 801 694 27 55 49 105 49 112 0 7 5 25 12 39 9 21 18 25 55 25
l43 0 0 65 c0 61 -1 65 -23 65 l-24 0 18 123 c10 67 19 157 19 199 0 100 -36
348 -62 418 -11 30 -28 79 -38 107 -39 110 -113 233 -216 362 -58 72 -114 136
-125 141 -38 21 -10 -42 46 -100 97 -102 265 -366 265 -416 0 -8 8 -31 19 -52
10 -20 28 -82 39 -137 46 -221 52 -328 27 -497 -24 -160 -17 -148 -89 -148
l-62 0 -17 82 c-11 51 -28 99 -47 129 -58 89 -173 179 -250 194 -61 11 -68 15
-74 40 -11 45 -111 45 -122 -1 -4 -15 -16 -26 -33 -30 -98 -22 -97 -22 -204
-105 -16 -12 -41 -40 -55 -62 -15 -22 -35 -51 -44 -66 -10 -14 -25 -61 -35
-103 l-16 -78 -104 0 -103 0 0 -65 0 -65 180 0 179 0 -19 -43 c-11 -23 -20
-54 -20 -69 0 -16 -9 -34 -24 -45 -13 -10 -31 -33 -39 -50 -9 -17 -33 -41 -52
-53 -35 -22 -44 -22 -293 -21 l-257 2 -38 38 -39 38 27 53 c30 59 28 71 -26
129 l-29 32 34 47 34 46 -61 71 c-33 38 -67 77 -73 85 -9 11 -10 27 -3 62 14
62 -3 128 -32 128 -23 0 -74 -24 -103 -49 -16 -13 -15 -8 6 28 14 25 44 58 67
75 37 26 52 31 130 36 52 3 95 11 104 19 21 17 22 76 3 113 -12 23 -12 29 1
39 8 7 12 21 10 31 -3 10 -1 20 4 23 5 3 6 26 2 50 -3 27 -2 45 4 45 5 0 14
10 20 23 8 17 6 28 -11 53 -82 122 -100 151 -98 164 1 8 -6 37 -17 65 -20 53
-16 77 23 154 21 41 7 66 -53 92 -89 39 -439 34 -539 -7 -59 -24 -162 -149
-230 -279 -48 -91 -45 -124 27 -259 55 -103 59 -116 59 -178 1 -76 14 -59
-137 -177 -45 -35 -86 -72 -92 -82 -5 -11 -27 -30 -48 -43 -21 -13 -45 -32
-54 -41 -16 -15 -17 -7 -17 127 1 167 14 251 65 408 36 113 55 152 143 300 89
148 185 253 346 379 80 63 273 166 356 191 25 7 70 21 100 31 142 47 396 62
577 35 92 -14 105 -18 217 -55 33 -11 61 -19 63 -17 13 13 -18 37 -65 51 -31
10 -68 21 -82 26 -81 28 -477 40 -610 18z m-80 -676 c12 -27 19 -57 15 -71 -5
-22 20 -66 88 -147 27 -33 35 -55 18 -55 -14 0 -25 -40 -22 -77 2 -20 -2 -33
-9 -33 -8 0 -10 -8 -7 -21 3 -12 1 -32 -5 -45 -8 -18 -7 -29 6 -48 9 -14 16
-38 16 -54 0 -35 -16 -42 -105 -42 -82 -1 -132 -25 -187 -93 -44 -54 -46 -58
-46 -125 l-1 -69 42 -32 c54 -41 84 -49 101 -26 8 12 15 14 20 7 9 -14 -4 -42
-19 -42 -11 0 -12 -26 -8 -128 5 -126 -8 -383 -28 -517 -11 -77 -52 -238 -75
-296 -12 -28 -20 -36 -34 -32 -18 5 -19 30 -4 98 2 11 9 142 14 290 8 217 7
309 -5 468 -8 108 -21 212 -28 230 -8 17 -12 37 -10 42 5 15 -152 165 -217
207 -30 20 -79 42 -107 49 -38 9 -53 18 -53 30 0 18 19 29 50 29 10 0 31 13
48 28 34 32 49 105 33 158 -5 17 -7 43 -4 57 6 29 61 89 77 84 6 -2 23 -29 38
-59 15 -31 31 -59 36 -62 6 -3 24 8 42 24 27 25 31 35 25 58 -11 43 -17 151
-11 188 6 29 12 35 49 45 65 17 126 27 189 28 l57 1 21 -47z m1029 -741 c-19
-20 -52 -76 -74 -124 l-40 -87 -47 -1 c-27 0 -48 2 -48 5 0 50 185 239 239
245 2 0 -12 -17 -30 -38z m-141 -442 c-9 -14 -10 -24 -3 -33 6 -8 24 -33 40
-56 34 -47 20 -46 228 -16 l118 18 32 48 c40 61 65 74 37 19 -21 -41 -27 -90
-11 -90 12 0 69 55 104 100 30 40 36 24 12 -34 l-16 -37 23 12 c13 7 41 27 63
45 22 18 54 35 70 39 l30 7 -30 -27 c-110 -96 -172 -145 -183 -145 -7 0 -30
-9 -50 -19 -20 -11 -59 -24 -87 -31 -27 -6 -57 -18 -66 -26 -8 -8 -21 -14 -27
-14 -7 0 -12 -4 -12 -10 0 -5 -3 -9 -7 -8 -5 0 -15 -1 -23 -5 -8 -3 -40 -14
-70 -25 -90 -33 -177 -80 -199 -108 l-21 -27 -40 18 c-50 23 -105 103 -96 140
3 13 29 51 56 84 28 33 50 67 50 75 0 9 11 40 24 71 19 41 30 55 46 55 18 0
19 -2 8 -20z m386 -17 c-14 -21 -26 -39 -28 -40 -1 -2 -38 -7 -82 -13 -43 -5
-103 -15 -131 -21 l-52 -12 -36 38 c-40 45 -39 40 -23 65 12 19 24 20 195 20
l182 0 -25 -37z m246 33 c0 -3 -4 -8 -10 -11 -5 -3 -10 -1 -10 4 0 6 5 11 10
11 6 0 10 -2 10 -4z m63 -148 c-89 -184 -260 -384 -432 -507 -146 -104 -164
-113 -351 -179 -188 -66 -186 -66 -373 -70 -105 -3 -218 1 -275 8 -108 13
-241 44 -283 66 l-28 14 14 48 c8 26 15 48 15 50 0 1 194 2 431 2 l430 0 -2
88 -2 87 76 30 c75 30 101 45 79 45 -7 0 -12 5 -12 10 0 12 50 59 62 60 4 0
45 17 90 39 46 21 96 41 111 45 16 4 38 16 50 27 12 11 37 24 57 29 19 5 56
14 82 21 26 6 53 18 59 25 6 8 20 14 29 14 10 0 31 12 47 28 48 45 165 133
171 127 3 -2 -17 -51 -45 -107z m-1510 -221 c-13 -34 -39 -91 -57 -127 -19
-36 -44 -90 -56 -122 -11 -31 -27 -59 -34 -61 -20 -8 -56 3 -56 16 0 6 32 107
72 225 l71 213 42 -41 42 -41 -24 -62z m606 37 c17 -47 63 -98 108 -119 l38
-18 -35 -12 c-83 -29 -77 -31 -95 27 -10 29 -28 74 -41 100 -22 44 -21 53 6
57 4 1 12 -15 19 -35z m-40 -263 c13 -24 -9 -57 -33 -48 -23 9 -31 34 -16 52
17 20 37 19 49 -4z"/>
<path d="M1960 2662 c0 -12 23 -29 73 -54 39 -20 113 -65 162 -101 67 -49 91
-62 93 -50 2 8 -11 28 -30 44 -38 33 -167 113 -245 153 -48 24 -53 25 -53 8z"/>
<path d="M546 1378 c-14 -71 -1 -257 20 -278 6 -6 35 14 77 53 86 80 87 93 7
175 -33 34 -69 66 -79 71 -16 9 -19 6 -25 -21z"/>
</g>
</svg>
