<?xml version="1.0" encoding="UTF-8" standalone="no"?>
<svg
   aria-hidden="true"
   focusable="false"
   data-prefix="far"
   data-icon="heart"
   class="svg-inline--fa fa-heart fa-w-16"
   role="img"
   viewBox="0 0 512 512"
   version="1.1"
   id="svg4"
   sodipodi:docname="heart-regular-full.svg"
   inkscape:version="1.1 (c68e22c387, 2021-05-23)"
   xmlns:inkscape="http://www.inkscape.org/namespaces/inkscape"
   xmlns:sodipodi="http://sodipodi.sourceforge.net/DTD/sodipodi-0.dtd"
   xmlns:xlink="http://www.w3.org/1999/xlink"
   xmlns="http://www.w3.org/2000/svg"
   xmlns:svg="http://www.w3.org/2000/svg">
  <sodipodi:namedview
     id="namedview5"
     pagecolor="#ffffff"
     bordercolor="#666666"
     borderopacity="1.0"
     inkscape:pageshadow="2"
     inkscape:pageopacity="0.0"
     inkscape:pagecheckerboard="0"
     showgrid="false"
     showguides="true"
     inkscape:zoom="1.5273438"
     inkscape:cx="256.32736"
     inkscape:cy="139.4578"
     inkscape:window-width="1920"
     inkscape:window-height="986"
     inkscape:window-x="-11"
     inkscape:window-y="-11"
     inkscape:window-maximized="1"
     inkscape:current-layer="svg4" />
  <defs
     id="defs8">
    <linearGradient
       inkscape:collect="always"
       id="linearGradient1212">
      <stop
         style="stop-color:#ff79da;stop-opacity:1;"
         offset="0"
         id="stop1208" />
      <stop
         style="stop-color:#ff79da;stop-opacity:0;"
         offset="1"
         id="stop1210" />
    </linearGradient>
    <linearGradient
       inkscape:collect="always"
       xlink:href="#linearGradient1212"
       id="linearGradient1214"
       x1="23.621"
       y1="257.7929"
       x2="489.02011"
       y2="257.7929"
       gradientUnits="userSpaceOnUse" />
    <filter
       inkscape:collect="always"
       style="color-interpolation-filters:sRGB"
       id="filter1216"
       x="-0.016803954"
       y="-0.015461475"
       width="1.0335538"
       height="1.0309241">
      <feGaussianBlur
         inkscape:collect="always"
         stdDeviation="2.9232039"
         id="feGaussianBlur1218" />
    </filter>
  </defs>
  <path
     fill="currentColor"
     d="M 440.30487,42.99435 C 387.93876,-11.501184 307.03405,-3.315641 256.93294,59.81396 206.83182,-3.315641 125.92712,-11.613315 73.561042,42.99435 5.4307715,113.9731 15.396638,229.69201 63.957576,291.02752 L 222.8678,491.40513 c 9.05989,11.43734 21.20012,17.82879 34.06514,17.82879 12.95564,0 25.00525,-6.27931 34.06515,-17.71665 L 449.90831,291.13965 c 48.47035,-61.33552 58.6174,-177.05442 -9.60344,-248.1453 z"
     id="path2"
     style="stroke-width:1.00793;fill:#9356dc;fill-opacity:1"
     sodipodi:nodetypes="cccccsccc" />
  <path
     fill="currentColor"
     d="M 439.70496,42.794224 C 387.33885,-11.701306 306.43414,-3.5157663 256.33303,59.613834 206.23191,-3.5157663 125.32721,-11.813436 72.961133,42.794224 4.8308635,113.77297 14.796733,229.49188 63.357673,290.82739 L 222.26789,491.205 c 9.05989,11.43734 21.20012,17.82879 34.06514,17.82879 12.95564,0 25.00525,-6.27931 34.06515,-17.71665 L 449.3084,290.93952 C 497.77875,229.604 507.9258,113.8851 439.70496,42.794224 Z"
     id="path2-0"
     style="mix-blend-mode:overlay;fill:url(#linearGradient1214);fill-opacity:1;stroke:#ff79da;stroke-width:1.508;stroke-miterlimit:4;stroke-dasharray:none;stroke-opacity:1;filter:url(#filter1216);opacity:0.94"
     sodipodi:nodetypes="cccccsccc" />
</svg>
