<?xml version="1.0" standalone="no"?>
<!DOCTYPE svg PUBLIC "-//W3C//DTD SVG 20010904//EN"
 "http://www.w3.org/TR/2001/REC-SVG-20010904/DTD/svg10.dtd">
<svg version="1.0" xmlns="http://www.w3.org/2000/svg"
 width="1300.000000pt" height="1390.000000pt" viewBox="0 0 1300.000000 1390.000000"
 preserveAspectRatio="xMidYMid meet">

<g transform="translate(0.000000,1390.000000) scale(0.100000,-0.100000)"
fill="#000000" stroke="none">
<path d="M6760 8314 c0 -8 13 -39 30 -68 84 -152 115 -282 108 -456 -4 -96
-11 -131 -38 -210 -34 -101 -110 -259 -168 -350 -69 -108 -148 -226 -200 -299
-116 -163 -196 -303 -256 -449 -75 -181 -88 -244 -93 -433 -4 -148 -2 -176 17
-255 23 -93 72 -202 132 -295 48 -74 315 -339 342 -339 15 0 3 36 -38 118 -24
48 -61 139 -82 202 l-39 115 0 200 c0 228 9 279 77 455 63 160 163 341 353
639 168 263 244 432 280 618 58 304 -57 581 -324 776 -65 48 -101 59 -101 31z"/>
<path d="M5887 7934 c-3 -4 13 -45 37 -93 105 -207 102 -352 -9 -596 -28 -61
-172 -291 -219 -348 -32 -40 -126 -192 -126 -205 0 -3 -6 -13 -13 -21 -23 -26
-84 -181 -109 -271 -17 -63 -22 -112 -22 -190 0 -156 30 -255 118 -393 58 -91
237 -260 250 -238 4 5 -9 40 -28 78 -77 155 -102 274 -93 443 5 90 12 135 37
210 36 111 108 260 184 380 30 47 80 125 110 173 139 218 216 425 216 578 0
62 -25 160 -58 227 -45 94 -249 291 -275 266z"/>
<path d="M7480 7695 c0 -3 11 -22 23 -43 13 -20 39 -75 57 -122 29 -74 34 -99
38 -195 3 -105 2 -114 -31 -205 -51 -139 -86 -202 -245 -440 -198 -297 -263
-439 -292 -631 -19 -130 13 -301 77 -417 33 -60 50 -81 127 -161 110 -115 135
-136 147 -124 8 8 -1 33 -30 89 -22 44 -43 93 -47 109 -3 17 -13 52 -22 78
-21 69 -11 294 18 397 38 137 68 202 169 370 41 69 80 134 86 145 6 11 32 52
57 91 67 102 153 278 172 354 10 36 21 81 27 101 12 48 11 162 -2 219 -21 93
-74 181 -156 262 -43 42 -89 86 -103 96 -26 20 -70 37 -70 27z"/>
<path d="M7395 5330 c3 -5 11 -10 16 -10 6 0 7 5 4 10 -3 6 -11 10 -16 10 -6
0 -7 -4 -4 -10z"/>
</g>
</svg>
